<svg width="60" height="60" viewBox="0 0 60 60" fill="none" xmlns="http://www.w3.org/2000/svg">
<path d="M3.75 22.7499C3.75 16.0994 3.75 12.7741 5.04429 10.2339C6.18279 7.99944 7.99944 6.18279 10.2339 5.04429C12.7741 3.75 16.0994 3.75 22.7499 3.75H37.2501C43.9007 3.75 47.226 3.75 49.7661 5.04429C52.0005 6.18279 53.8172 7.99944 54.9557 10.2339C56.25 12.7741 56.25 16.0994 56.25 22.7499V37.2501C56.25 43.9007 56.25 47.226 54.9557 49.7661C53.8172 52.0005 52.0005 53.8172 49.7661 54.9557C47.226 56.25 43.9007 56.25 37.2501 56.25H22.7499C16.0994 56.25 12.7741 56.25 10.2339 54.9557C7.99944 53.8172 6.18279 52.0005 5.04429 49.7661C3.75 47.226 3.75 43.9007 3.75 37.2501V22.7499Z" fill="#00005B"/>
<path d="M25.8549 36.6821H17.7195L16.0642 41.966C16.0183 42.162 15.8378 42.3007 15.6416 42.2911H11.521C11.286 42.2911 11.2039 42.1588 11.2745 41.8938L18.3182 21.1736C18.3887 20.957 18.459 20.7451 18.5295 20.468C18.6217 19.986 18.6688 19.4962 18.6704 19.0051C18.6502 18.86 18.7755 18.7315 18.9169 18.7522H24.5167C24.6808 18.7522 24.7746 18.8124 24.7984 18.9328L32.7932 41.9298C32.8635 42.171 32.793 42.2913 32.5819 42.2911H28.0033C27.8428 42.3093 27.6894 42.1993 27.6512 42.0382L25.8549 36.6821ZM18.9874 32.2269H24.552C23.6377 29.1028 22.6059 26.0199 21.7697 22.8714C20.8221 26.1373 19.947 29.1661 18.9874 32.2269Z" fill="#9999FF"/>
<path d="M38.7389 34.6418C39.0627 37.3248 41.3157 38.6039 43.8104 38.5493C45.2172 38.5218 46.7206 38.3033 48.0352 37.7714C48.1522 37.6756 48.2112 37.7354 48.2112 37.9522V41.3836C48.2223 41.5621 48.1477 41.7217 47.9999 41.8171C46.366 42.5592 44.4907 42.7831 42.7186 42.7546C37.4352 42.7546 33.8069 39.032 33.8084 33.6158C33.7945 28.4832 37.1243 24.1531 42.296 24.1531C46.6799 24.0394 49.715 27.5493 49.7272 31.9182C49.7272 32.7138 49.6827 33.5123 49.5863 34.3021C49.5676 34.4648 49.429 34.5912 49.2693 34.5912C45.7681 34.5912 42.2498 34.6418 38.7389 34.6418ZM38.7389 31.3512C40.6902 31.3512 42.6528 31.4202 44.6028 31.3332C44.8958 31.3032 45.1135 31.2475 45.1135 30.9428C45.0728 29.3232 43.706 27.991 42.1199 28.0531C40.2037 27.9342 38.9772 29.552 38.7389 31.3512Z" fill="#9999FF"/>
</svg>
