<svg width="60" height="60" viewBox="0 0 60 60" fill="none" xmlns="http://www.w3.org/2000/svg">
<g clip-path="url(#clip0_327_454)">
<path d="M29.9742 59.8485L12.6586 55.0415L8.7998 11.7617H51.2004L47.3376 55.0349L29.9742 59.8485Z" fill="#264DE4"/>
<path d="M44.0305 52.2792L47.3314 15.3003H30V56.1689L44.0305 52.2792Z" fill="#2965F1"/>
<path d="M17.646 31.3521L18.1216 36.6601H30.0001V31.3521H17.646ZM16.6899 20.6084L17.1724 25.9165H30.0001V20.6084H16.6899ZM30.0001 45.1378L29.9769 45.1439L24.0653 43.5477L23.6873 39.3143H18.3588L19.1024 47.6488L29.9757 50.6671L30.0001 50.6604V45.1378Z" fill="#EBEBEB"/>
<path d="M18.7783 0H25.2071V2.68853H21.4669V5.37706H25.2075V8.06543H18.7783V0ZM26.4931 0H32.922V2.33784H29.1816V2.80537H32.922V8.18244H26.4932V5.72742H30.2337V5.25989H26.4929L26.4931 0ZM34.208 0H40.6369V2.33784H36.8965V2.80537H40.6369V8.18244H34.208V5.72742H37.9484V5.25989H34.2081V0H34.208Z" fill="white"/>
<path d="M42.3202 31.3521L43.2783 20.6084H29.9816V25.9165H37.4612L36.9782 31.3521H29.9816V36.6601H36.518L35.9017 43.5444L29.9814 45.1423V50.6646L40.8634 47.6488L40.9432 46.7519L42.1907 32.7774L42.3202 31.3521Z" fill="white"/>
</g>
<defs>
<clipPath id="clip0_327_454">
<rect width="60" height="60" fill="white"/>
</clipPath>
</defs>
</svg>
