<svg width="61" height="60" viewBox="0 0 61 60" fill="none" xmlns="http://www.w3.org/2000/svg">
<path d="M5.34755 32.6497C3.88415 31.1863 3.88415 28.8137 5.34755 27.3503L27.8503 4.84755C29.3137 3.38415 31.6863 3.38415 33.1497 4.84755L55.6524 27.3503C57.1158 28.8137 57.1158 31.1863 55.6524 32.6497L33.1497 55.1524C31.6863 56.6158 29.3137 56.6158 27.8503 55.1524L5.34755 32.6497Z" fill="#EE513B"/>
<path d="M23.2792 9.49023L21.0005 11.769L26.8859 17.6545C26.6478 18.1652 26.5149 18.7349 26.5149 19.3356C26.5149 21.0411 27.5864 22.4963 29.093 23.0646V37.462C27.5864 38.0303 26.5149 39.4855 26.5149 41.191C26.5149 43.3915 28.2987 45.1754 30.4992 45.1754C32.6997 45.1754 34.4836 43.3915 34.4836 41.191C34.4836 39.6449 33.6029 38.3043 32.3157 37.6439V23.0843L37.9417 28.7103C37.7152 29.2107 37.5892 29.7663 37.5892 30.3513C37.5892 32.5518 39.373 34.3356 41.5735 34.3356C43.774 34.3356 45.5579 32.5518 45.5579 30.3513C45.5579 28.1508 43.774 26.3669 41.5735 26.3669C41.1459 26.3669 40.7341 26.4342 40.3479 26.5589L34.3057 20.5167C34.4214 20.1436 34.4836 19.7468 34.4836 19.3356C34.4836 17.1351 32.6997 15.3512 30.4992 15.3512C30.088 15.3512 29.6915 15.4135 29.3182 15.5292L23.2792 9.49023Z" fill="white"/>
</svg>
