<svg width="80" height="27" viewBox="0 0 80 27" fill="none" xmlns="http://www.w3.org/2000/svg">
<path d="M75.2731 26.6456C73.834 26.6456 72.6802 26.261 71.8117 25.4919C70.9433 24.7227 70.509 23.7549 70.509 22.5887C70.509 21.3977 70.9433 20.4176 71.8117 19.6484C72.6802 18.8544 73.834 18.4574 75.2731 18.4574C76.6874 18.4574 77.8288 18.8544 78.6973 19.6484C79.5657 20.4176 80 21.3977 80 22.5887C80 23.7549 79.5657 24.7227 78.6973 25.4919C77.8288 26.261 76.6874 26.6456 75.2731 26.6456Z" fill="white"/>
<path d="M71.192 0L62.3338 26.3513H51.6519L42.7937 0H51.5775L57.0115 18.1258L62.4083 0H71.192Z" fill="white"/>
<path d="M34.8326 26.3513L29.8824 16.8976H29.8452V26.3513H21.5825V0H33.8649C35.9988 0 37.8225 0.3846 39.3361 1.1538C40.8497 1.89819 41.9787 2.92792 42.7231 4.243C43.4923 5.53327 43.8769 6.99723 43.8769 8.63488C43.8769 10.3966 43.3806 11.9598 42.3881 13.3245C41.4204 14.6892 40.0185 15.6693 38.1823 16.2648L43.9141 26.3513H34.8326ZM29.8452 11.3891H33.1205C33.9145 11.3891 34.51 11.2154 34.907 10.868C35.304 10.4958 35.5025 9.92515 35.5025 9.15595C35.5025 8.46119 35.2916 7.91531 34.8698 7.5183C34.4728 7.1213 33.8897 6.92279 33.1205 6.92279H29.8452V11.3891Z" fill="white"/>
<path d="M19.8751 0V17.0092C19.8751 20.1605 19.0439 22.5549 17.3814 24.1926C15.7438 25.8054 13.4362 26.6118 10.4586 26.6118C7.25777 26.6118 4.71445 25.731 2.82867 23.9692C0.942889 22.2075 0 19.6394 0 16.2648H8.15103C8.15103 17.3318 8.32472 18.0886 8.6721 18.5352C9.01948 18.957 9.49093 19.1679 10.0864 19.1679C10.5827 19.1679 10.9673 19.0067 11.2402 18.6841C11.5132 18.3615 11.6496 17.8032 11.6496 17.0092V0H19.8751Z" fill="white"/>
</svg>
