<svg width="18" height="18" viewBox="0 0 18 18" fill="none" xmlns="http://www.w3.org/2000/svg">
<path d="M4.01775 3.21436H13.982C14.5157 3.21432 15.0291 3.4185 15.417 3.785C15.8049 4.15151 16.0379 4.65255 16.0681 5.18536L16.0713 5.30364V12.6965C16.0714 13.2302 15.8672 13.7436 15.5007 14.1315C15.1342 14.5194 14.6331 14.7524 14.1003 14.7826L13.982 14.7858H4.01775C3.48409 14.7858 2.97065 14.5816 2.58275 14.2151C2.19485 13.8486 1.96189 13.3476 1.93168 12.8148L1.92847 12.6965V5.30364C1.92843 4.76998 2.13261 4.25654 2.49911 3.86864C2.86562 3.48073 3.36666 3.24778 3.89947 3.21757L4.01775 3.21436ZM15.107 7.01043L9.22232 10.0704C9.16532 10.1 9.10297 10.118 9.03895 10.1232C8.97492 10.1284 8.91049 10.1207 8.84947 10.1006L8.77747 10.0704L2.89275 7.01043V12.6965C2.89276 12.9788 2.99893 13.2508 3.19019 13.4585C3.38145 13.6662 3.6438 13.7944 3.92518 13.8176L4.01775 13.8215H13.982C14.2645 13.8215 14.5366 13.7152 14.7443 13.5238C14.952 13.3324 15.0801 13.0699 15.1032 12.7884L15.107 12.6965V7.01043ZM13.982 4.17864H4.01775C3.73542 4.17865 3.46341 4.28482 3.25572 4.47608C3.04803 4.66733 2.91984 4.92969 2.89661 5.21107L2.89275 5.30364V5.92336L8.9999 9.09907L15.107 5.92336V5.30364C15.107 5.0212 15.0008 4.74911 14.8094 4.5414C14.618 4.33369 14.3555 4.20558 14.074 4.1825L13.982 4.17864Z" fill="white"/>
</svg>
