<svg width="24" height="24" viewBox="0 0 24 24" fill="none" xmlns="http://www.w3.org/2000/svg">
<path d="M19.2938 16.1089L15.8802 13.8901L17.1671 11.5307C17.4671 10.9797 17.6245 10.3624 17.625 9.73505V6C17.625 4.60761 17.0719 3.27226 16.0873 2.28769C15.1028 1.30312 13.7674 0.75 12.375 0.75C10.9826 0.75 9.64726 1.30312 8.6627 2.28769C7.67813 3.27226 7.12501 4.60761 7.12501 6V9.73505C7.12547 10.3624 7.28288 10.9797 7.58288 11.5307L8.86984 13.8901L5.45626 16.1089C4.93163 16.4485 4.50056 16.9143 4.20248 17.4635C3.9044 18.0128 3.74883 18.6281 3.75001 19.2531V23.25H21V19.2531C21.0012 18.6281 20.8456 18.0128 20.5475 17.4636C20.2494 16.9143 19.8184 16.4485 19.2938 16.1089ZM19.5 21.75H5.25001V19.2531C5.24931 18.8781 5.34265 18.5089 5.52151 18.1793C5.70037 17.8498 5.95902 17.5703 6.2738 17.3665L10.8516 14.391L8.89974 10.8125C8.71974 10.4819 8.6253 10.1115 8.62501 9.73505V6C8.62501 5.00544 9.02009 4.05161 9.72336 3.34835C10.4266 2.64509 11.3804 2.25 12.375 2.25C13.3696 2.25 14.3234 2.64509 15.0267 3.34835C15.7299 4.05161 16.125 5.00544 16.125 6V9.73505C16.1247 10.1115 16.0303 10.4819 15.8503 10.8125L13.8984 14.391L18.4764 17.3665C18.7911 17.5703 19.0497 17.8498 19.2286 18.1794C19.4074 18.5089 19.5007 18.8781 19.5 19.2531V21.75Z" fill="white"/>
</svg>
