<svg width="18" height="18" viewBox="0 0 18 18" fill="none" xmlns="http://www.w3.org/2000/svg">
<path d="M15.5806 11.2711L12.259 9.78256C12.1085 9.71807 11.9443 9.69215 11.7812 9.70712C11.6182 9.7221 11.4615 9.77751 11.3252 9.86834C11.3114 9.87721 11.2983 9.88708 11.2859 9.89787L9.54985 11.3744C9.53184 11.3843 9.51179 11.3897 9.49129 11.3905C9.47078 11.3912 9.45039 11.3872 9.43173 11.3787C8.31587 10.8401 7.15993 9.69115 6.61923 8.59076C6.61022 8.57237 6.60554 8.55217 6.60554 8.5317C6.60554 8.51122 6.61022 8.49102 6.61923 8.47264L8.10071 6.71482C8.11134 6.70182 8.1212 6.6882 8.13024 6.67404C8.21981 6.53729 8.27391 6.38038 8.28766 6.21748C8.30141 6.05458 8.27437 5.89083 8.20899 5.74099L6.73102 2.42506C6.64709 2.22931 6.50194 2.06607 6.31735 1.95983C6.13276 1.85359 5.91869 1.81008 5.70727 1.83584C4.78845 1.95663 3.94504 2.40786 3.33466 3.10519C2.72429 3.80252 2.38871 4.69825 2.39063 5.62498C2.39063 11.1304 6.86954 15.6094 12.375 15.6094C13.3017 15.6111 14.1973 15.2755 14.8946 14.6651C15.5919 14.0548 16.0432 13.2115 16.1641 12.2927C16.1899 12.0823 16.1469 11.8692 16.0418 11.6851C15.9366 11.501 15.7749 11.3558 15.5806 11.2711ZM12.375 14.7656C7.33501 14.7656 3.23438 10.665 3.23438 5.62498C3.23203 4.90352 3.49243 4.20589 3.96693 3.66242C4.44143 3.11896 5.09756 2.76684 5.81274 2.67185H5.82891C5.85725 2.67238 5.88476 2.68146 5.90785 2.6979C5.93094 2.71433 5.94852 2.73736 5.95829 2.76396L7.44188 6.07639C7.45034 6.0948 7.45473 6.11483 7.45473 6.1351C7.45473 6.15536 7.45034 6.17539 7.44188 6.19381L5.95759 7.95584C5.94651 7.96842 5.93641 7.98181 5.92735 7.99592C5.83447 8.13771 5.77978 8.30108 5.76857 8.47021C5.75736 8.63934 5.79001 8.8085 5.86337 8.96131C6.48704 10.2382 7.77376 11.5151 9.0647 12.1387C9.2184 12.2117 9.38838 12.2435 9.55807 12.2312C9.72775 12.2189 9.89135 12.1628 10.0329 12.0684C10.0463 12.0593 10.0596 12.0494 10.0723 12.0389L11.8076 10.5623C11.8247 10.5531 11.8437 10.5477 11.8631 10.5465C11.8825 10.5453 11.9019 10.5483 11.9201 10.5553L15.2424 12.0438C15.2695 12.0554 15.2923 12.0752 15.3076 12.1004C15.3228 12.1256 15.3298 12.155 15.3274 12.1844C15.2329 12.8999 14.8812 13.5566 14.3378 14.0316C13.7945 14.5066 13.0967 14.7675 12.375 14.7656Z" fill="white"/>
</svg>
