<svg width="60" height="60" viewBox="0 0 60 60" fill="none" xmlns="http://www.w3.org/2000/svg">
<path d="M45.1792 57H13.8208C7.29163 57 2 51.7084 2 45.1792V13.8208C2 7.29163 7.29163 2 13.8208 2H45.1803C51.7084 2 57 7.29163 57 13.8208V45.1803C57 51.7084 51.7084 57 45.1792 57Z" fill="#653E66"/>
<path d="M20.4011 40.6381H18.2769V19.9854H25.3873C27.3147 19.9854 28.7464 20.585 29.6802 21.7851C30.6147 22.9844 31.0816 24.5585 31.0816 26.505C31.0816 27.1939 31.0617 27.7884 31.0226 28.29C30.9828 28.7923 30.8603 29.4215 30.6538 30.179C30.4473 30.9365 30.167 31.5553 29.8122 32.0377C29.4589 32.5201 28.9175 32.9428 28.1902 33.3064C27.4622 33.6708 26.597 33.8522 25.5931 33.8522H20.4004L20.4011 40.6381ZM20.4011 31.7869H25.3291C26.0372 31.7869 26.6361 31.649 27.1281 31.3739C27.6193 31.098 27.9785 30.8037 28.205 30.4888C28.4314 30.1738 28.6084 29.7217 28.736 29.1316C28.8644 28.5415 28.933 28.0989 28.9426 27.8039C28.9529 27.5096 28.9581 27.0862 28.9581 26.5352C28.9581 23.5457 27.7086 22.0506 25.211 22.0506H20.4011V31.7869Z" fill="#F8A3FF"/>
<path d="M36.0391 40.638H33.9148V25.8564H35.9801V26.6235C36.8652 25.9744 37.9863 25.6499 39.3435 25.6499C40.0118 25.6499 40.7494 25.7288 41.5563 25.8859L41.0253 27.8922C40.3363 27.6761 39.6246 27.5684 38.887 27.5684C38.1494 27.5684 37.4892 27.7602 36.9095 28.143C36.329 28.5273 36.0391 29.0436 36.0391 29.6927V40.638Z" fill="#F8A3FF"/>
</svg>
