<svg width="60" height="60" viewBox="0 0 60 60" fill="none" xmlns="http://www.w3.org/2000/svg">
<path d="M51.6284 33.4017C49.541 33.4126 47.7268 33.9153 46.2077 34.6585C45.6503 33.5547 45.0929 32.5711 44.9946 31.8498C44.8853 31.0082 44.7541 30.4946 44.8853 29.4891C45.0164 28.4836 45.6066 27.052 45.5956 26.9427C45.5847 26.8334 45.4645 26.3197 44.2623 26.3088C43.0601 26.2979 42.0219 26.5383 41.9017 26.8552C41.7814 27.1722 41.5519 27.8935 41.3989 28.6367C41.1913 29.7295 38.9946 33.6312 37.7377 35.6749C37.3334 34.8771 36.9836 34.1776 36.9071 33.6203C36.7978 32.7787 36.6667 32.2651 36.7978 31.2596C36.929 30.2541 37.5191 28.8224 37.5082 28.7132C37.4973 28.6039 37.3771 28.0902 36.1749 28.0793C34.9727 28.0683 33.9344 28.3088 33.8142 28.6257C33.694 28.9427 33.5629 29.6858 33.3115 30.4071C33.0601 31.1285 30.1421 37.6421 29.3771 39.3252C28.9836 40.1886 28.6448 40.8771 28.4044 41.347C28.4044 41.347 28.3935 41.3798 28.3607 41.4345C28.153 41.8388 28.0328 42.0574 28.0328 42.0574C28.0328 42.0574 28.0328 42.0574 28.0328 42.0683C27.8689 42.3634 27.694 42.6367 27.6066 42.6367C27.541 42.6367 27.4208 41.8498 27.6284 40.7787C28.0656 38.5164 29.1038 34.9973 29.0929 34.8771C29.0929 34.8115 29.2896 34.1995 28.4153 33.8826C27.5629 33.5656 27.2568 34.0902 27.1803 34.0902C27.1038 34.0902 27.0492 34.276 27.0492 34.276C27.0492 34.276 28 30.3197 25.235 30.3197C23.5082 30.3197 21.1257 32.2104 19.9454 33.9153C19.2022 34.3197 17.6175 35.1831 15.9235 36.1121C15.2787 36.4727 14.612 36.8334 13.9891 37.1722C13.9454 37.1285 13.9017 37.0738 13.8579 37.0301C10.5137 33.4563 4.32789 30.9317 4.59018 26.1339C4.68855 24.3853 5.28964 19.7951 16.47 14.2213C25.6721 9.68583 32.9946 10.9427 34.2623 13.7295C36.0765 17.7077 30.3388 25.0957 20.8306 26.1667C17.2022 26.5711 15.3006 25.1722 14.8197 24.6476C14.317 24.1011 14.2405 24.0683 14.0547 24.1776C13.7487 24.3416 13.9454 24.8334 14.0547 25.1175C14.3388 25.8607 15.5082 27.1722 17.4864 27.817C19.235 28.3853 23.4864 28.7022 28.6339 26.7132C34.3935 24.4836 38.8962 18.2869 37.5738 13.0957C36.2514 7.82791 27.5082 6.0902 19.235 9.03009C14.317 10.7787 8.98363 13.5328 5.14756 17.1175C0.590185 21.3798 -0.131126 25.0847 0.163956 26.6367C1.22406 32.1448 8.81969 35.7295 11.8579 38.3853C11.7049 38.4727 11.5629 38.5492 11.4426 38.6148C9.92352 39.3689 4.13117 42.3962 2.68855 45.5984C1.0492 49.2268 2.95084 51.8279 4.20767 52.1776C8.10931 53.2596 12.1202 51.3142 14.2732 48.1011C16.4263 44.888 16.164 40.7132 15.1694 38.8006C15.1585 38.7787 15.1476 38.7569 15.1257 38.735C15.5191 38.5055 15.9235 38.2651 16.317 38.0356C17.0929 37.5765 17.8579 37.1503 18.5137 36.8006C18.1421 37.817 17.8689 39.0301 17.7377 40.7787C17.5738 42.8334 18.4153 45.5 19.5191 46.5492C20.0109 47.0082 20.5902 47.0192 20.9618 47.0192C22.2514 47.0192 22.8306 45.9481 23.4754 44.6804C24.2623 43.1285 24.9727 41.3252 24.9727 41.3252C24.9727 41.3252 24.0875 46.1995 26.4918 46.1995C27.3661 46.1995 28.2514 45.0629 28.6448 44.4836V44.4946C28.6448 44.4946 28.6667 44.4618 28.7104 44.3853C28.7978 44.2432 28.8525 44.1558 28.8525 44.1558V44.1339C29.2022 43.5219 29.9891 42.1339 31.1585 39.8279C32.6667 36.8552 34.1202 33.1394 34.1202 33.1394C34.1202 33.1394 34.2514 34.0465 34.6995 35.5547C34.9618 36.4399 35.5082 37.4126 35.9454 38.3525C35.5956 38.8443 35.3771 39.1175 35.3771 39.1175C35.3771 39.1175 35.3771 39.1175 35.388 39.1285C35.1038 39.5 34.7978 39.9044 34.459 40.2979C33.2678 41.7186 31.847 43.347 31.6503 43.817C31.4208 44.3744 31.4754 44.7787 31.9126 45.1066C32.2295 45.347 32.7978 45.3798 33.3771 45.347C34.4481 45.2705 35.2022 45.0082 35.5738 44.8443C36.153 44.6367 36.8306 44.3197 37.4645 43.8498C38.6339 42.9864 39.3443 41.7514 39.2787 40.123C39.2459 39.2268 38.9508 38.3306 38.5902 37.4891C38.6995 37.3361 38.7978 37.1831 38.9071 37.0301C40.7541 34.3306 42.1858 31.3689 42.1858 31.3689C42.1858 31.3689 42.317 32.276 42.765 33.7842C42.9836 34.5492 43.4317 35.3798 43.8252 36.1886C42.0874 37.5984 41.0164 39.2377 40.6339 40.3088C39.9454 42.2979 40.4809 43.194 41.4973 43.4017C41.9563 43.5 42.612 43.2815 43.0929 43.0738C43.7049 42.8771 44.4263 42.5383 45.1148 42.0356C46.2842 41.1722 47.4099 39.97 47.3443 38.3416C47.3115 37.5984 47.1148 36.8662 46.8415 36.1558C48.317 35.5438 50.2186 35.205 52.6448 35.4891C57.847 36.1011 58.8743 39.347 58.6776 40.7132C58.4809 42.0793 57.388 42.8224 57.0273 43.0519C56.6667 43.2815 56.5465 43.358 56.5793 43.5219C56.623 43.7623 56.7978 43.7514 57.1038 43.7077C57.5301 43.6312 59.8361 42.6039 59.9344 40.0902C60.0984 36.8771 57.0383 33.3689 51.6284 33.4017ZM11.4973 46.9317C9.77051 48.8115 7.36614 49.5219 6.32789 48.9208C5.21314 48.276 5.65029 45.5 7.77051 43.511C9.06013 42.2979 10.7213 41.1722 11.8252 40.4836C12.0765 40.3306 12.4481 40.1121 12.8962 39.8388C12.9727 39.7951 13.0164 39.7733 13.0164 39.7733C13.1038 39.7186 13.1913 39.664 13.2787 39.6093C14.0547 42.4509 13.3115 44.9536 11.4973 46.9317ZM24.0656 38.3853C23.4645 39.8498 22.2077 43.5984 21.4426 43.3907C20.7869 43.2159 20.3825 40.3744 21.3115 37.5656C21.7814 36.1558 22.776 34.4727 23.3552 33.817C24.2951 32.7678 25.3334 32.4181 25.5847 32.8443C25.9017 33.4017 24.4372 37.4673 24.0656 38.3853ZM34.4372 43.347C34.1858 43.4782 33.9454 43.5656 33.8361 43.5C33.7596 43.4563 33.9454 43.2815 33.9454 43.2815C33.9454 43.2815 35.2459 41.8825 35.7596 41.2487C36.0547 40.8771 36.4044 40.4399 36.776 39.9481V40.0902C36.776 41.7623 35.1585 42.888 34.4372 43.347ZM42.4372 41.5219C42.2514 41.3907 42.2842 40.9536 42.9071 39.5875C43.1476 39.0519 43.7159 38.1558 44.6885 37.2924C44.7978 37.6421 44.8743 37.9809 44.8634 38.2979C44.8525 40.4071 43.3443 41.194 42.4372 41.5219Z" fill="#CD6799"/>
</svg>
