<svg width="18" height="18" viewBox="0 0 18 18" fill="none" xmlns="http://www.w3.org/2000/svg">
<path d="M11.1503 9.17404C10.8797 8.99986 10.5858 8.86502 10.2773 8.77354C10.0635 8.70969 9.84821 8.65117 9.63154 8.59804C9.37441 8.52759 9.1153 8.46456 8.85454 8.40904C8.46662 8.32719 8.08589 8.21433 7.71604 8.07154C7.47559 7.97687 7.26391 7.82128 7.10179 7.62004C6.96177 7.43168 6.89176 7.20043 6.90379 6.96604C6.90379 6.72304 6.98329 6.48604 7.13179 6.29404C7.31254 6.07129 7.55179 5.90404 7.82329 5.81179C8.20885 5.67703 8.61576 5.61374 9.02404 5.62504C9.34279 5.62054 9.66079 5.66404 9.96679 5.75254C10.1895 5.81554 10.3995 5.91904 10.5848 6.05779C10.722 6.15829 10.8375 6.28504 10.9245 6.43054C10.9717 6.51816 11.0517 6.58347 11.147 6.61209C11.2423 6.64071 11.345 6.63031 11.4327 6.58317C11.5203 6.53602 11.5856 6.456 11.6142 6.36071C11.6428 6.26542 11.6324 6.16266 11.5853 6.07504C11.4504 5.84013 11.2692 5.635 11.0528 5.47204C10.7943 5.27488 10.5017 5.12715 10.1895 5.03629C9.81122 4.92487 9.4184 4.87052 9.02404 4.87504C8.52341 4.8633 8.02489 4.94363 7.55329 5.11204C7.1514 5.25604 6.79765 5.50928 6.53179 5.84329C6.28654 6.16579 6.15379 6.56029 6.15379 6.96604C6.14277 7.36718 6.26838 7.76017 6.51004 8.08054C6.75304 8.38504 7.07029 8.62129 7.43254 8.76604C7.74079 8.88454 8.05729 8.98354 8.37904 9.06079C8.38504 9.06304 8.39029 9.06829 8.39704 9.07054C8.53429 9.11104 8.75554 9.16654 9.07204 9.23554C9.20179 9.26329 9.32329 9.29404 9.44554 9.32479C9.46804 9.33079 9.49804 9.33754 9.51904 9.34429C9.52804 9.34729 9.53704 9.34654 9.54604 9.34804C9.72604 9.39454 9.89929 9.44329 10.059 9.49129C10.2975 9.56179 10.5255 9.66529 10.7348 9.79879C10.8923 9.90079 11.025 10.0388 11.121 10.2008C11.2185 10.3883 11.265 10.5983 11.2583 10.8105C11.2718 11.0903 11.19 11.367 11.0258 11.5935C10.833 11.8495 10.5705 12.0445 10.2698 12.1553C9.86779 12.3128 9.43804 12.3878 9.00604 12.375C8.5055 12.3925 8.00808 12.2896 7.55554 12.075C7.31575 11.9469 7.10985 11.7636 6.95479 11.5403C6.82799 11.3703 6.75346 11.167 6.74029 10.9553C6.74029 10.8558 6.70078 10.7605 6.63045 10.6901C6.56013 10.6198 6.46475 10.5803 6.36529 10.5803C6.26583 10.5803 6.17045 10.6198 6.10012 10.6901C6.0298 10.7605 5.99029 10.8558 5.99029 10.9553C6.00304 11.319 6.12379 11.6708 6.33754 11.9655C6.56254 12.2903 6.86179 12.5565 7.21054 12.7403C7.76925 13.0115 8.38527 13.1435 9.00604 13.125C9.53699 13.1386 10.0652 13.0442 10.5585 12.8475C10.9896 12.6841 11.3642 12.3994 11.637 12.0278C11.895 11.6706 12.0257 11.2373 12.0083 10.797C12.0199 10.4751 11.9468 10.1557 11.7962 9.87087C11.6456 9.58605 11.4229 9.34576 11.1503 9.17404ZM16.3808 10.326C16.5955 9.13544 16.5188 7.91055 16.1573 6.75603C15.7957 5.60151 15.1601 4.55167 14.3046 3.6962C13.4492 2.84074 12.3993 2.20508 11.2448 1.84354C10.0903 1.48199 8.86539 1.40531 7.67479 1.62004C6.82782 1.18713 5.86546 1.03373 4.92587 1.18187C3.98629 1.33001 3.11781 1.77207 2.44513 2.44458C1.77245 3.11709 1.33017 3.98547 1.1818 4.92501C1.03342 5.86456 1.18658 6.82697 1.61929 7.67404C1.40434 8.86474 1.4809 10.0898 1.84241 11.2445C2.20393 12.3991 2.83966 13.4491 3.69526 14.3046C4.55086 15.1602 5.60088 15.7958 6.75559 16.1572C7.9103 16.5186 9.13535 16.5951 10.326 16.38C11.173 16.8132 12.1354 16.9668 13.0751 16.8187C14.0148 16.6707 14.8834 16.2286 15.5561 15.556C16.2288 14.8834 16.671 14.0148 16.8192 13.0752C16.9673 12.1355 16.8139 11.173 16.3808 10.326ZM14.1848 15.66C13.6308 15.9651 13.0086 16.1251 12.3762 16.1251C11.7437 16.1251 11.1215 15.9651 10.5675 15.66C10.49 15.6175 10.4001 15.6035 10.3133 15.6203C9.2251 15.8371 8.10023 15.7821 7.03838 15.4601C5.97653 15.1382 5.01049 14.5593 4.22586 13.7748C3.44124 12.9902 2.86226 12.0243 2.54025 10.9624C2.21823 9.90061 2.16312 8.77575 2.37979 7.68754C2.39683 7.601 2.38275 7.51122 2.34004 7.43404C1.94877 6.72238 1.79912 5.90293 1.91356 5.09891C2.02801 4.29489 2.40038 3.54975 2.97469 2.97553C3.54899 2.40131 4.29418 2.02905 5.09822 1.91472C5.90226 1.80039 6.72168 1.95017 7.43329 2.34154C7.51039 2.38527 7.60087 2.39915 7.68754 2.38054C8.77557 2.16414 9.90018 2.2194 10.9618 2.54141C12.0233 2.86343 12.9891 3.44226 13.7736 4.22665C14.5581 5.01104 15.137 5.97678 15.4591 7.03833C15.7812 8.09988 15.8366 9.22448 15.6203 10.3125C15.6031 10.3993 15.6172 10.4894 15.66 10.5668C16.1396 11.4377 16.2537 12.4635 15.977 13.4185C15.7003 14.3736 15.0557 15.1803 14.1848 15.66Z" fill="white"/>
</svg>
