<svg width="60" height="60" viewBox="0 0 60 60" fill="none" xmlns="http://www.w3.org/2000/svg">
<path d="M54.394 9.43148L43.5827 4.22648C42.9722 3.9321 42.2852 3.83496 41.617 3.94851C40.9487 4.06207 40.3324 4.38069 39.8534 4.86023L4.46274 37.1252C4.03335 37.5149 3.77631 38.0591 3.74818 38.6382C3.72005 39.2174 3.92313 39.784 4.31274 40.2134C4.35961 40.264 4.40649 40.3127 4.45711 40.3577L7.34649 42.9827C7.72404 43.3264 8.21003 43.5269 8.72005 43.5495C9.23006 43.5721 9.73188 43.4154 10.1384 43.1065L52.7665 10.7815C53.0885 10.5372 53.4723 10.3875 53.8747 10.3495C54.2771 10.3115 54.6821 10.3865 55.0441 10.5662C55.4062 10.7458 55.7109 11.023 55.924 11.3665C56.1371 11.7099 56.2501 12.106 56.2502 12.5102V12.3846C56.2502 11.7675 56.076 11.163 55.7476 10.6406C55.4192 10.1182 54.95 9.69906 54.394 9.43148Z" fill="#0065A9"/>
<path d="M54.394 50.5688L43.5827 55.7757C42.972 56.0692 42.2852 56.1659 41.6172 56.0524C40.9491 55.9388 40.3328 55.6207 39.8534 55.1419L4.46274 22.875C4.03335 22.4854 3.77631 21.9412 3.74818 21.362C3.72005 20.7829 3.92313 20.2163 4.31274 19.7869C4.35961 19.7363 4.40649 19.6875 4.45711 19.6425L7.34649 17.0175C7.72443 16.6725 8.21153 16.471 8.7228 16.4484C9.23407 16.4258 9.73705 16.5834 10.144 16.8938L52.7665 49.2188C53.0885 49.4631 53.4723 49.6127 53.8747 49.6507C54.2771 49.6888 54.6821 49.6137 55.0441 49.4341C55.4062 49.2544 55.7109 48.9772 55.924 48.6338C56.1371 48.2903 56.2501 47.8942 56.2502 47.49V47.625C56.2482 48.2404 56.0731 48.8429 55.7448 49.3634C55.4166 49.884 54.9484 50.3017 54.394 50.5688Z" fill="#007ACC"/>
<path d="M43.5826 55.7758C42.9719 56.0694 42.2851 56.1661 41.617 56.0526C40.949 55.939 40.3327 55.6209 39.8532 55.1421C40.1225 55.4078 40.4642 55.5882 40.8355 55.6606C41.2068 55.733 41.5912 55.6942 41.9406 55.549C42.29 55.4039 42.5887 55.1588 42.7994 54.8446C43.0101 54.5304 43.1234 54.161 43.1251 53.7827V6.21772C43.1254 5.83764 43.0129 5.46601 42.8018 5.14992C42.5908 4.83383 42.2906 4.5875 41.9394 4.44212C41.5883 4.29675 41.2018 4.25888 40.8291 4.33331C40.4564 4.40774 40.1141 4.59112 39.8457 4.86022C40.3248 4.38086 40.941 4.06221 41.6091 3.94834C42.2772 3.83447 42.9642 3.93101 43.5751 4.2246L54.3845 9.4221C54.9422 9.68835 55.4134 10.1069 55.7435 10.6294C56.0736 11.1519 56.2492 11.7572 56.2501 12.3752V47.6252C56.2502 48.2428 56.0759 48.8479 55.7471 49.3707C55.4184 49.8935 54.9486 50.3128 54.392 50.5802L43.5826 55.7758Z" fill="#1F9CF0"/>
</svg>
