<svg width="60" height="60" viewBox="0 0 60 60" fill="none" xmlns="http://www.w3.org/2000/svg">
<path d="M3.75 22.7499C3.75 16.0994 3.75 12.7741 5.04429 10.2339C6.18279 7.99944 7.99944 6.18279 10.2339 5.04429C12.7741 3.75 16.0994 3.75 22.7499 3.75H37.2501C43.9007 3.75 47.226 3.75 49.7661 5.04429C52.0005 6.18279 53.8172 7.99944 54.9557 10.2339C56.25 12.7741 56.25 16.0994 56.25 22.7499V37.2501C56.25 43.9007 56.25 47.226 54.9557 49.7661C53.8172 52.0005 52.0005 53.8172 49.7661 54.9557C47.226 56.25 43.9007 56.25 37.2501 56.25H22.7499C16.0994 56.25 12.7741 56.25 10.2339 54.9557C7.99944 53.8172 6.18279 52.0005 5.04429 49.7661C3.75 47.226 3.75 43.9007 3.75 37.2501V22.7499Z" fill="#330000"/>
<path d="M29.1911 36.7433H21.0557L19.4004 42.0171C19.3545 42.213 19.1741 42.3518 18.9778 42.342H14.8572C14.6222 42.342 14.54 42.2097 14.6107 41.9447L21.6544 21.1386C21.7249 20.9218 21.7954 20.6751 21.8657 20.3982C21.9579 19.9161 22.005 19.4263 22.0067 18.9353C21.9864 18.7902 22.1139 18.662 22.2531 18.6823H27.8529C28.017 18.6823 28.1108 18.7425 28.1346 18.8629L36.1294 41.9809C36.1997 42.2218 36.1294 42.3422 35.9181 42.342H31.3395C31.179 42.3604 31.0256 42.2503 30.9874 42.0893L29.1911 36.7433ZM22.3236 32.1919H27.8882C26.9739 29.0678 25.9421 25.9847 25.1059 22.8364C24.2036 25.9902 23.2193 29.1312 22.3236 32.1919Z" fill="#FF9A00"/>
<path d="M40.8834 22.5109C40.5242 22.5257 40.166 22.4625 39.8321 22.3256C39.4984 22.1887 39.1965 21.981 38.9464 21.7162C38.697 21.4399 38.5031 21.1159 38.3762 20.7624C38.2492 20.4092 38.1917 20.0336 38.2067 19.6573C38.1939 19.2848 38.2579 18.9137 38.3944 18.5682C38.531 18.2228 38.7371 17.9108 38.9992 17.6525C39.2587 17.397 39.5651 17.1968 39.9007 17.0635C40.2362 16.9302 40.5941 16.8664 40.9537 16.8759C41.7992 16.8759 42.4624 17.1348 42.9437 17.6525C43.1867 17.9216 43.3755 18.2372 43.4994 18.5812C43.6232 18.9251 43.6798 19.2909 43.6655 19.6573C43.6804 20.0349 43.6209 20.412 43.4908 20.7656C43.3609 21.1192 43.1627 21.4425 42.9084 21.7162C42.6427 21.9849 42.3255 22.1942 41.9771 22.3311C41.6285 22.4677 41.2562 22.5291 40.8834 22.5109ZM38.4532 41.9805V24.7144C38.4532 24.4976 38.5468 24.3892 38.7351 24.3892H43.067C43.2545 24.3892 43.3485 24.4976 43.3487 24.7144V41.9805C43.3487 42.2216 43.2547 42.342 43.067 42.3418H38.7703C38.559 42.3418 38.4532 42.2214 38.4532 41.9805Z" fill="#FF9A00"/>
</svg>
