<svg width="60" height="60" viewBox="0 0 60 60" fill="none" xmlns="http://www.w3.org/2000/svg">
<path d="M51.2004 11.7617L47.3376 55.0349L29.9742 59.8485L12.6586 55.0415L8.7998 11.7617H51.2004Z" fill="#E44D26"/>
<path d="M30 56.1689L44.0305 52.2792L47.3314 15.3003H30V56.1689Z" fill="#F16529"/>
<path d="M22.491 25.9165H30.0001V20.6084H16.6899L16.8169 22.0324L18.1216 36.6601H30.0001V31.3521H22.9761L22.491 25.9165ZM23.6873 39.3143H18.3588L19.1024 47.6488L29.9757 50.6671L30.0001 50.6604V45.1378L29.9769 45.1439L24.0653 43.5477L23.6873 39.3143Z" fill="#EBEBEB"/>
<path d="M12.7446 0H15.4421V2.6651H17.9098V0H20.6075V8.07058H17.9099V5.36809H15.4423V8.07058H12.7448L12.7446 0ZM24.1546 2.6764H21.7802V0H29.2285V2.6764H26.8526V8.07058H24.1551V2.6764H24.1546ZM30.4106 0H33.2232L34.9534 2.83579L36.682 0H39.4958V8.07058H36.8093V4.07036L34.9534 6.93989H34.9069L33.0499 4.07036V8.07058H30.4106V0ZM40.8383 0H43.5366V5.40299H47.3301V8.07058H40.8381V0H40.8383Z" fill="white"/>
<path d="M29.9816 36.6601H36.518L35.9017 43.5444L29.9814 45.1423V50.6646L40.8634 47.6488L40.9432 46.7519L42.1907 32.7774L42.3202 31.3521H29.9816V36.6601ZM29.9816 25.9035V25.9165H42.8032L42.9095 24.7235L43.1515 22.0324L43.2783 20.6084H29.9816V25.9035Z" fill="white"/>
</svg>
