<svg width="60" height="60" viewBox="0 0 60 60" fill="none" xmlns="http://www.w3.org/2000/svg">
<path d="M45.0086 56.2927H15.0737C8.84096 56.2927 3.78955 51.2413 3.78955 45.0086V15.0737C3.78955 8.84096 8.84096 3.78955 15.0737 3.78955H45.0096C51.2413 3.78955 56.2927 8.84096 56.2927 15.0737V45.0096C56.2927 51.2413 51.2413 56.2927 45.0086 56.2927Z" fill="#6F2B41"/>
<path d="M22.2757 43.7425H19.4675V19.0926L16.8933 19.0146V16.4404H22.2757V43.7425Z" fill="#FF70BD"/>
<path d="M31.6363 24.631C32.7801 24.1367 34.1647 23.889 35.7901 23.889C37.4156 23.889 38.7865 24.2537 39.9049 24.9811V16.4404H42.7131V43.7425C40.4773 44.0545 38.4092 44.2105 36.5117 44.2105C34.6132 44.2105 32.8971 43.8205 31.3633 43.0404C29.3351 42.001 28.321 40.1932 28.321 37.618V30.2465C28.321 27.5173 29.4258 25.6451 31.6363 24.631ZM39.9049 27.6733C38.5525 26.9459 37.0704 26.5822 35.4586 26.5822C33.9238 26.5822 32.8122 26.978 32.1238 27.7718C31.4345 28.5645 31.0903 29.5727 31.0903 30.7945V37.737C31.0903 38.9334 31.5193 39.8705 32.3773 40.5452C33.3134 41.2463 34.4699 41.5973 35.8486 41.5973C37.2264 41.5973 38.5788 41.4939 39.9049 41.2863V27.6733Z" fill="#FF70BD"/>
</svg>
