<svg width="60" height="60" viewBox="0 0 60 60" fill="none" xmlns="http://www.w3.org/2000/svg">
<path d="M30 56.25C44.4975 56.25 56.25 44.4975 56.25 30C56.25 15.5025 44.4975 3.75 30 3.75C15.5025 3.75 3.75 15.5025 3.75 30C3.75 44.4975 15.5025 56.25 30 56.25Z" fill="#0769AD"/>
<path d="M42.4824 25.1646C44.8393 25.1646 46.9972 24.3786 48.6656 23.0749C46.9335 25.3571 44.0638 26.8492 40.8166 26.8492C35.5269 26.8492 31.2388 22.8894 31.2388 18.0048C31.2388 15.2964 32.5571 12.8724 34.6335 11.25C33.5439 12.6856 32.9045 14.4339 32.9045 16.3201C32.9045 21.2048 37.1926 25.1646 42.4824 25.1646Z" fill="#78CFF5"/>
<path d="M48.5745 31.2351C46.0335 33.2282 42.744 34.4305 39.1509 34.4305C31.1013 34.4305 24.5758 28.3965 24.5758 20.9532C24.5758 18.0663 25.5575 15.3913 27.2289 13.1982C24.0774 15.6704 22.0771 19.3592 22.0771 23.4801C22.0771 30.9235 28.6027 36.9576 36.6523 36.9576C41.58 36.9576 45.9363 34.6965 48.5745 31.2351Z" fill="#78CFF5"/>
<path d="M48.75 38.944C45.1292 42.3993 40.1132 44.5384 34.5703 44.5384C23.5307 44.5384 14.5815 36.0531 14.5815 25.5859C14.5815 22.2691 15.4801 19.1513 17.059 16.4395C13.4685 19.8657 11.25 24.586 11.25 29.7976C11.25 40.2648 20.1992 48.7501 31.2388 48.7501C38.7801 48.7501 45.3461 44.7903 48.75 38.944Z" fill="#78CFF5"/>
</svg>
