<svg width="60" height="60" viewBox="0 0 60 60" fill="none" xmlns="http://www.w3.org/2000/svg">
<path d="M3.75 22.7499C3.75 16.0994 3.75 12.7741 5.04429 10.2339C6.18279 7.99944 7.99944 6.18279 10.2339 5.04429C12.7741 3.75 16.0994 3.75 22.7499 3.75H37.2501C43.9007 3.75 47.226 3.75 49.7661 5.04429C52.0005 6.18279 53.8172 7.99944 54.9557 10.2339C56.25 12.7741 56.25 16.0994 56.25 22.7499V37.2501C56.25 43.9007 56.25 47.226 54.9557 49.7661C53.8172 52.0005 52.0005 53.8172 49.7661 54.9557C47.226 56.25 43.9007 56.25 37.2501 56.25H22.7499C16.0994 56.25 12.7741 56.25 10.2339 54.9557C7.99944 53.8172 6.18279 52.0005 5.04429 49.7661C3.75 47.226 3.75 43.9007 3.75 37.2501V22.7499Z" fill="#001E36"/>
<path d="M15 42.2179V19.1314C15 18.9744 15.0656 18.8846 15.2188 18.8846C17.4793 18.8846 19.7389 18.75 21.9999 18.75C25.6691 18.75 29.6419 20.0046 31.0344 23.8429C31.3626 24.7852 31.5375 25.7499 31.5375 26.7596C31.5375 28.6892 31.1001 30.282 30.225 31.5384C27.7808 35.0481 23.5444 34.9935 19.7469 34.9935V42.1956C19.7766 42.4087 19.5949 42.5096 19.4188 42.5096H15.2625C15.0875 42.5096 15 42.4198 15 42.2179ZM19.7687 23.2147V30.7532C21.2745 30.8634 22.8501 30.8754 24.2968 30.3943C25.8941 29.9334 26.7688 28.551 26.7688 26.8942C26.8131 25.4826 26.0439 24.1281 24.7344 23.6186C23.3051 23.0242 21.3116 22.9886 19.7687 23.2147Z" fill="#31A8FF"/>
<path d="M45.1814 29.264C44.5195 28.9151 43.8145 28.6599 43.0857 28.5054C42.1494 28.2851 38.456 27.5134 38.4545 29.4446C38.4873 30.5227 40.1988 31.0509 40.955 31.359C43.6098 32.2704 46.6139 33.8996 46.5549 37.1747C46.636 41.2517 42.6858 42.8816 39.2997 42.882C37.537 42.9002 35.7007 42.6272 34.0874 41.8704C33.9333 41.7888 33.8343 41.6147 33.8409 41.4369V37.5358C33.8234 37.3794 33.9914 37.2427 34.1227 37.3552C35.7033 38.3111 37.5768 38.7753 39.4055 38.8001C40.2127 38.8001 41.8124 38.7219 41.8004 37.5358C41.8004 36.3977 39.8866 35.8743 39.1237 35.5852C38.0178 35.1905 36.9693 34.6436 36.0069 33.9598C34.6617 33.0003 33.818 31.4621 33.8409 29.7697C33.833 25.9309 37.4692 24.2077 40.7439 24.207C42.2746 24.1942 43.9186 24.3077 45.3436 24.9294C45.5485 24.9896 45.5909 25.2056 45.5902 25.3989V29.0473C45.6031 29.2738 45.3517 29.3508 45.1814 29.264Z" fill="#31A8FF"/>
</svg>
