<svg width="60" height="60" viewBox="0 0 60 60" fill="none" xmlns="http://www.w3.org/2000/svg">
<path fill-rule="evenodd" clip-rule="evenodd" d="M15.2045 8.98159L30 7.5L44.7954 8.98159L56.2498 23.5462L30 52.4998L3.75 23.5462L15.2045 8.98159Z" fill="#FDB300"/>
<path d="M14.3824 23.5464L29.9998 52.5001L3.75 23.5464H14.3824ZM45.6176 23.5464L29.9998 52.5001L56.25 23.5464" fill="#EA6C00"/>
<path fill-rule="evenodd" clip-rule="evenodd" d="M14.3831 23.5464H45.6177L30.0005 52.5001" fill="#FDAD00"/>
<path d="M30.0005 7.5L15.205 8.98132L14.3831 23.5461L30.0005 7.5ZM30.0005 7.5L44.7961 8.98132L45.6181 23.5461" fill="#FDD231"/>
<path d="M56.25 23.5462L44.7956 8.98145L45.6176 23.5462H56.25ZM3.75 23.5462L15.2044 8.98145L14.3824 23.5462" fill="#FDAD00"/>
<path fill-rule="evenodd" clip-rule="evenodd" d="M30.0005 7.5L14.3831 23.5461H45.6177" fill="#FEEEB7"/>
</svg>
