<svg width="60" height="60" viewBox="0 0 60 60" fill="none" xmlns="http://www.w3.org/2000/svg">
<g clip-path="url(#clip0_327_475)">
<path fill-rule="evenodd" clip-rule="evenodd" d="M0 29.9991C0 41.8738 6.9002 52.136 16.9074 56.9981L2.59697 17.7905C0.933792 21.52 0 25.6489 0 29.9991ZM50.252 28.4859C50.252 24.777 48.9188 22.2101 47.7787 20.2132C46.2581 17.74 44.8312 15.6474 44.8312 13.176C44.8312 10.4178 46.9218 7.85087 49.8694 7.85087C50.0026 7.85087 50.1282 7.86771 50.2576 7.87521C44.9212 2.98506 37.809 0 29.9994 0C19.5179 0 10.2982 5.37766 4.93366 13.521C5.63868 13.5435 6.30245 13.5567 6.86497 13.5567C10.0019 13.5567 14.8602 13.176 14.8602 13.176C16.4765 13.0804 16.6678 15.458 15.0515 15.6474C15.0515 15.6474 13.4258 15.8386 11.6182 15.9342L22.5423 48.429L29.1088 28.739L24.4361 15.9342C22.8198 15.8386 21.2879 15.6474 21.2879 15.6474C19.6716 15.5517 19.861 13.0804 21.4792 13.176C21.4792 13.176 26.4331 13.5567 29.3807 13.5567C32.5177 13.5567 37.3759 13.176 37.3759 13.176C38.9941 13.0804 39.1835 15.458 37.5672 15.6474C37.5672 15.6474 35.9396 15.8386 34.1339 15.9342L44.9755 48.1815L47.97 38.1837C49.2638 34.0323 50.252 31.0528 50.252 28.4859ZM56.3249 15.6067C56.4543 16.563 56.5274 17.5868 56.5274 18.6912C56.5274 21.7344 55.9574 25.1563 54.2455 29.4371L45.082 55.9298C54.0017 50.7303 60 41.0662 60 29.9996C60 24.7832 58.6668 19.8799 56.3249 15.6067ZM30.5263 32.6234L21.5242 58.7786C24.213 59.5699 27.0556 60.0011 29.9994 60.0011C33.4927 60.0011 36.8434 59.3974 39.9616 58.3005C39.8829 58.1711 39.8078 58.0361 39.7478 57.888L30.5263 32.6234Z" fill="white"/>
</g>
<defs>
<clipPath id="clip0_327_475">
<rect width="60" height="60" fill="white"/>
</clipPath>
</defs>
</svg>
