<svg width="60" height="60" viewBox="0 0 60 60" fill="none" xmlns="http://www.w3.org/2000/svg">
<path d="M3.75 22.7499C3.75 16.0994 3.75 12.7741 5.04429 10.2339C6.18279 7.99944 7.99944 6.18279 10.2339 5.04429C12.7741 3.75 16.0994 3.75 22.7499 3.75H37.2501C43.9007 3.75 47.226 3.75 49.7661 5.04429C52.0005 6.18279 53.8172 7.99944 54.9557 10.2339C56.25 12.7741 56.25 16.0994 56.25 22.7499V37.2501C56.25 43.9007 56.25 47.226 54.9557 49.7661C53.8172 52.0005 52.0005 53.8172 49.7661 54.9557C47.226 56.25 43.9007 56.25 37.2501 56.25H22.7499C16.0994 56.25 12.7741 56.25 10.2339 54.9557C7.99944 53.8172 6.18279 52.0005 5.04429 49.7661C3.75 47.226 3.75 43.9007 3.75 37.2501V22.7499Z" fill="#470137"/>
<path d="M31.2122 19.1883L24.6615 30.2778L31.6699 42.0533C31.8155 42.3203 31.6698 42.3794 31.4587 42.3794H26.4577C26.1054 42.3794 25.8589 42.3667 25.718 42.1257C25.248 41.1865 24.7785 40.2533 24.3092 39.3262C23.8393 38.3993 23.3404 37.4542 22.8126 36.4906C22.2842 35.5278 21.7618 34.5526 21.2452 33.5648C20.7754 34.5282 20.2528 35.4914 19.7484 36.4546C19.2433 37.418 18.7444 38.3752 18.2516 39.3262C17.7586 40.2777 17.2538 41.2229 16.7373 42.1617C16.6432 42.3785 16.4786 42.4008 16.2441 42.4008H11.4192C11.2297 42.4008 11.2068 42.2583 11.3136 42.0895L18.1108 30.6389L11.4896 19.1521C11.3694 18.9882 11.4729 18.8136 11.6658 18.827H16.6315C16.8466 18.815 17.0366 18.896 17.1598 19.0799C17.5825 20.0433 18.052 21.0066 18.5685 21.9696C19.0847 22.933 19.6072 23.8844 20.1358 24.8232C20.6642 25.7624 21.1866 26.7136 21.6326 27.677C22.1019 26.6898 22.5774 25.7266 23.0589 24.7872C23.54 23.848 24.033 22.9028 24.5381 21.9516C25.0429 21.0006 25.53 20.0555 25.9997 19.1161C26.0621 18.91 26.2114 18.8056 26.4223 18.827H31.0359C31.2122 18.827 31.2849 19.0675 31.2122 19.1883Z" fill="#FF61F6"/>
<path d="M41.3195 42.8484C38.2136 42.897 34.9603 41.618 33.3249 38.7847C32.5265 37.4244 32.1273 35.7208 32.1275 33.6735C32.1142 32.0156 32.5273 30.3834 33.3249 28.9416C35.3831 25.2624 39.5295 23.8839 43.4679 24.2458V17.1297C43.4679 16.9615 43.5384 16.8769 43.6792 16.8769H48.1168C48.2381 16.8591 48.3453 16.9692 48.3281 17.0936V38.4416C48.3281 39.3223 48.4155 40.2 48.4691 41.0784C48.4777 41.2284 48.3909 41.3769 48.2576 41.4397C46.0651 42.3776 43.6927 42.8375 41.3195 42.8484ZM43.4679 38.3692V28.5081C40.2511 27.6144 37.1281 30.0645 37.1285 33.4567C37.0522 36.9639 40.0755 39.387 43.4679 38.3692Z" fill="#FF61F6"/>
</svg>
