<svg width="61" height="60" viewBox="0 0 61 60" fill="none" xmlns="http://www.w3.org/2000/svg">
<g clip-path="url(#clip0_327_487)">
<path fill-rule="evenodd" clip-rule="evenodd" d="M30.4833 0.000420904C38.2105 0.000420904 45.938 0.000420904 53.6652 0C54.6348 0 55.5956 0.0841808 56.526 0.36787C58.5433 0.98281 59.6116 2.42946 60.0302 4.42328C60.1963 5.21374 60.2435 6.01977 60.2452 6.82538C60.2574 12.2374 60.2667 17.6493 60.2671 23.0613C60.2675 32.918 60.2688 42.7748 60.2486 52.6315C60.2456 54.0112 60.1723 55.4061 59.491 56.6629C58.7355 58.0569 57.701 59.1601 56.1306 59.6454C55.8469 59.733 55.5505 59.8327 55.2596 59.8327C54.5893 59.8332 53.9371 59.9994 53.2689 59.9994C38.1371 59.9981 23.0053 60.007 7.87357 59.983C6.64298 59.9809 5.39215 59.8912 4.22311 59.3904C3.99039 59.2906 3.75557 59.2069 3.55111 59.0511C2.06251 57.9168 1.05198 56.5021 0.835287 54.5879C0.757295 53.8976 0.732422 53.2111 0.732422 52.5208C0.734951 37.1831 0.736216 21.8453 0.744226 6.50759C0.744648 5.6178 0.753922 4.71286 1.02753 3.86137C1.75644 1.59186 3.35128 0.353138 5.7155 0.101438C6.26482 0.0429322 6.8192 0.00505085 7.37104 0.00462994C15.075 -0.00168362 22.7794 0.000420904 30.4833 0.000420904Z" fill="#FB7A24"/>
<path fill-rule="evenodd" clip-rule="evenodd" d="M30.68 38.1657C30.5108 39.2015 30.3921 40.1376 30.0201 41.0005C28.2779 45.0432 25.3093 47.5068 20.8587 47.9972C15.5978 48.5767 10.7389 45.3299 9.27792 40.287C8.74843 38.4595 8.80146 36.5965 8.99339 34.7366C9.19837 32.7491 9.78385 30.8643 10.6981 29.0864C10.829 28.8321 10.8264 28.6402 10.6627 28.394C9.25898 26.2827 8.71433 23.9505 8.91216 21.4331C9.01781 20.0874 9.34443 18.8003 9.95474 17.5948C11.7427 14.0635 15.6685 11.0666 20.9264 11.5641C25.5496 12.0014 29.8319 15.9895 30.5003 20.4747C30.534 20.6998 30.5971 20.9208 30.6712 21.2529C30.7819 20.6514 30.8619 20.1552 30.9654 19.6636C31.8266 15.5888 35.8151 11.3251 41.4687 11.2724C47.1988 11.2194 51.4424 15.7134 52.243 19.8875C52.5814 21.6515 52.5224 23.4138 52.2434 25.1753C51.9643 26.9351 51.4474 28.6267 50.6919 30.2392C50.5252 30.5949 50.5425 30.8508 50.7559 31.1812C51.99 33.0938 52.5346 35.1933 52.4648 37.4733C52.3187 42.2308 48.954 46.497 44.3249 47.6129C37.8619 49.1702 32.9079 45.305 31.2407 40.6288C30.9688 39.8678 30.84 39.0731 30.68 38.1657ZM42.4216 29.8074C42.4906 29.5384 42.699 29.3772 42.8488 29.1781C44.4693 27.0248 45.3216 24.6193 45.1314 21.9108C44.9929 19.9338 43.3669 18.5414 41.3988 18.6151C39.4294 18.6888 37.9453 20.2078 37.9175 22.1785C37.9154 22.3397 37.9251 22.5013 37.915 22.6617C37.7794 24.762 36.6207 25.9123 34.8647 26.0407C34.5439 26.0643 34.2224 26.0929 33.9012 26.0937C31.622 26.0988 29.3433 26.0979 27.0641 26.0958C26.0686 26.095 25.0816 26.2032 24.1337 26.4957C19.7088 27.8611 17.1286 30.887 16.2742 35.397C16.105 36.2893 15.9526 37.2153 16.2451 38.132C16.6648 39.4465 17.4472 40.4242 18.8324 40.7513C20.2681 41.0901 21.5187 40.7151 22.512 39.5875C23.1543 38.8585 23.3567 37.9923 23.4047 37.0414C23.5289 34.596 24.8606 33.3737 27.0813 33.3922C30.4881 33.4204 33.8953 33.3981 37.3025 33.4006C37.9074 33.401 37.9129 33.409 37.9158 34.0071C37.9217 35.112 37.8876 36.2181 37.9301 37.3218C37.9996 39.1232 39.5847 40.6208 41.4224 40.6734C43.3173 40.7277 45.0064 39.3261 45.1297 37.4964C45.2362 35.913 45.2294 34.3195 45.1255 32.7348C45.0451 31.5078 44.3813 30.6336 43.2567 30.126C42.9869 30.0048 42.7032 29.9139 42.4216 29.8074ZM21.0653 26.0904C21.7981 26.0904 22.3962 26.0836 22.9939 26.0933C23.2902 26.0979 23.4001 25.9704 23.3976 25.68C23.3879 24.5305 23.4472 23.3772 23.374 22.2319C23.2772 20.7209 22.4737 19.6286 21.067 19.0777C19.6246 18.5128 18.3046 18.8352 17.1884 19.9005C16.0671 20.9709 15.9177 22.2799 16.31 23.7127C16.6703 25.0293 17.5217 25.7772 18.8606 26.0032C19.6385 26.1341 20.4205 26.0714 21.0653 26.0904Z" fill="white"/>
</g>
<defs>
<clipPath id="clip0_327_487">
<rect width="60" height="60" fill="white" transform="translate(0.5)"/>
</clipPath>
</defs>
</svg>
